<svg xmlns="http://www.w3.org/2000/svg" width="280.00021mm" height="87.732491mm" viewBox="0 0 280.00021 87.732491"><defs><linearGradient id="a" x1="0" x2="1" y1="0" y2="0" gradientTransform="scale(-230.98664 230.98664) rotate(-45.168 1.446 1.977)" gradientUnits="userSpaceOnUse" spreadMethod="pad"><stop offset="0" style="stop-opacity:1;stop-color:#fff"/><stop offset="0.1" style="stop-opacity:1;stop-color:#fff"/><stop offset="0.76326681" style="stop-opacity:1;stop-color:#00a9de"/><stop offset="1" style="stop-opacity:1;stop-color:#00a9de"/></linearGradient><linearGradient id="b" x1="0" x2="1" y1="0" y2="0" gradientTransform="scale(170.16513 -170.16513) rotate(-60.866 -.913 -1.284)" gradientUnits="userSpaceOnUse" spreadMethod="pad"><stop offset="0" style="stop-opacity:1;stop-color:#fff"/><stop offset="1" style="stop-opacity:1;stop-color:#00a9de"/></linearGradient><linearGradient id="c" x1="0" x2="1" y1="0" y2="0" gradientTransform="scale(165.11599 -165.11599) rotate(-45.168 -1.518 -1.246)" gradientUnits="userSpaceOnUse" spreadMethod="pad"><stop offset="0" style="stop-opacity:1;stop-color:#fff"/><stop offset="0.05" style="stop-opacity:1;stop-color:#fff"/><stop offset="0.53884406" style="stop-opacity:1;stop-color:#00a9de"/><stop offset="1" style="stop-opacity:1;stop-color:#00a9de"/></linearGradient><clipPath id="d" clipPathUnits="userSpaceOnUse"><path d="M0 595.276h841.89V0H0Z"/></clipPath></defs><path d="M149.663 327c15.371 19.252 37.692 23.222 53.893 13.934 24.854-14.257 24.225-64.819-9.691-96.344-8.4-7.816-39.439-32.588-83.639-22.491-44.657 10.203-75.688 49.286-78.983 91.771l.01.004c-1.423 13.595 1.467 28.977 8.298 43.808-9.892-17.911-15.518-38.497-15.456-60.409.202-68.673 56.031-124.179 124.707-123.98 68.676.2 124.18 56.031 123.98 124.704-.002.458-.033.916-.04 1.374-3.733 34.653-23.114 58.467-59.907 60.441-1.09.058-2.194.088-3.311.088-19.258 0-42.324-8.853-59.861-32.9" style="fill:url(#a);stroke:none" transform="matrix(.35278 0 0 -.35278 -8.5 148.866)"/><path d="M148.078 421.982c-46.766-.138-87.406-26.085-108.527-64.3-6.831-14.831-9.721-30.213-8.298-43.808 2.045-19.469 12.963-35.286 33.975-40.524 30.417-7.599 54.454 9.556 82.461 50.844a96.824 96.824 0 0 0 1.974 2.806c18.554 25.442 43.297 33.876 63.172 32.812 36.793-1.974 56.174-25.788 59.907-60.441-.937 67.907-56.256 122.608-124.295 122.612l-.369-.001" style="fill:url(#b);stroke:none" transform="matrix(.35278 0 0 -.35278 -8.5 148.866)"/><path d="M149.663 327a96.824 96.824 0 0 1-1.974-2.806c-28.007-41.288-52.044-58.443-82.461-50.844-21.012 5.238-31.93 21.055-33.975 40.524l-.01-.004c3.295-42.485 34.326-81.568 78.983-91.771 44.2-10.097 75.239 14.675 83.639 22.491 33.916 31.525 34.545 82.087 9.691 96.344-5.531 3.171-11.775 4.797-18.211 4.797-12.42 0-25.558-6.051-35.682-18.731" style="fill:url(#c);stroke:none" transform="matrix(.35278 0 0 -.35278 -8.5 148.866)"/><g clip-path="url(#d)" transform="matrix(.35278 0 0 -.35278 -8.5 148.866)"><path d="M0 0c-7.891 0-13.796 5.938-13.796 13.867 0 8.003 5.751 13.779 13.796 13.779 8.037 0 13.862-5.776 13.862-13.779C13.862 5.938 7.924 0 0 0m0 32.68c-11.227 0-19.717-8.078-19.717-18.813 0-9.194 6.859-18.905 19.6-18.905 13.055 0 19.867 9.481 19.867 18.905 0 10.88-8.295 18.813-19.75 18.813" style="fill:#004f97;fill-opacity:1;fill-rule:nonzero;stroke:none" transform="translate(545.478 211.614)"/><path d="M0 0v-36.826h4.223l.046.153c1.024 4.002 1.532 8.803 1.532 14.666v2.073h14.037v5.114H5.801v9.707h14.037V0H0" style="fill:#004f97;fill-opacity:1;fill-rule:nonzero;stroke:none" transform="translate(577.557 243.849)"/><path d="M0 0c0-2.065-.998-5.555-7.575-5.555h-6.978c.516 3.177.782 6.812.805 11.038h5.896C-2.859 5.483 0 3.489 0 0m-10.681 10.522h-3.067v10.519h4.387c5.092 0 6.156-2.661 6.156-4.894 0-3.776-2.436-5.625-7.476-5.625m7.945-1.631c3.606 1.56 5.328 4.001 5.328 7.782 0 4.676-3.519 9.481-11.403 9.481h-10.76v-36.826h12.677c9.354 0 12.675 5.329 12.675 9.931 0 4.888-3.189 8.457-8.517 9.632" style="fill:#004f97;fill-opacity:1;fill-rule:nonzero;stroke:none" transform="translate(367.744 217.694)"/><path d="M0 0h-4.162l-15.694-36.826h4.328c1.984 2.073 4.316 6.087 6.253 10.813H5.76l4.806-10.813h5.746zm3.36-20.975H-7.123l5.037 12.23 5.446-12.23" style="fill:#004f97;fill-opacity:1;fill-rule:nonzero;stroke:none" transform="translate(399.495 243.849)"/><path d="M0 0v-27.633L-24.197 0h-4.409v-36.826h3.901l.046.153c1.043 4.002 1.563 8.803 1.563 14.666v12.596L.737-36.826h4.755V0H0" style="fill:#004f97;fill-opacity:1;fill-rule:nonzero;stroke:none" transform="translate(452.35 243.849)"/><path d="M0 0h-6.996l-14.907-16.148V0h-5.821v-36.826h4.231l.05.153c1.032 4.002 1.54 8.803 1.54 14.666v2.669l18.018-17.488h7.803l-19.933 19.337L0 0" style="fill:#004f97;fill-opacity:1;fill-rule:nonzero;stroke:none" transform="translate(500.024 243.849)"/><path d="M0 0c-7.891 0-13.842 5.938-13.842 13.867 0 8.003 5.818 13.779 13.842 13.779 8.041 0 13.879-5.776 13.879-13.779C13.879 5.938 7.899 0 0 0m0 32.68c-11.247 0-19.729-8.078-19.729-18.813 0-9.194 6.875-18.905 19.599-18.905 13.084 0 19.88 9.481 19.88 18.905 0 10.88-8.295 18.813-19.75 18.813" style="fill:#004f97;fill-opacity:1;fill-rule:nonzero;stroke:none" transform="translate(682.132 211.614)"/><path d="M0 0h14.698v5.109H0v10.59h15.239v5.113H-5.817v-36.826h21.531v5.118H-.812C-.275-7.72 0-4.151 0 0" style="fill:#004f97;fill-opacity:1;fill-rule:nonzero;stroke:none" transform="translate(757.555 223.036)"/><path d="M0 0h-4.16l-15.69-36.826h4.318c2.007 2.073 4.327 6.087 6.262 10.813H5.755l4.793-10.813h5.783zm3.364-20.975H-7.125l5.068 12.23 5.421-12.23" style="fill:#004f97;fill-opacity:1;fill-rule:nonzero;stroke:none" transform="translate(801.452 243.849)"/><path d="M0 0h-6.991l-14.92-16.148V0h-5.818v-36.826h4.227l.055.153c1.028 4.002 1.536 8.803 1.536 14.666v2.669L-3.91-36.826h7.833l-19.959 19.337L0 0" style="fill:#004f97;fill-opacity:1;fill-rule:nonzero;stroke:none" transform="translate(656.86 243.849)"/><path d="M0 0c-2.577 4.218-4.63 7.558-7.82 9.777 3.823 1.637 5.938 4.818 5.938 8.974 0 6.366-4.643 10.364-12.155 10.364h-9.364V-7.711h4.243l.008.153c1.049 4.002 1.583 8.803 1.583 14.666v.962h1.786c2.468 0 4.551-.512 9.465-8.219l4.842-7.562H5.08Zm-7.687 18.751c0-1.562-.461-2.819-1.37-3.785-1.173-1.183-3.027-1.77-5.562-1.77h-2.948v11.039h2.948c4.6 0 6.874-1.783 6.932-5.339v-.145" style="fill:#004f97;fill-opacity:1;fill-rule:nonzero;stroke:none" transform="translate(737.671 214.733)"/><path d="M0 0h13.949v44.338h-31.201v16.744h43.464V72.87H-74.711V61.082h43.485V44.338h-32.471V32.606H0Z" style="fill:#004f97;fill-opacity:1;fill-rule:nonzero;stroke:none" transform="translate(552.228 276.211)"/><path d="M0 0v-30.282h8.481s5.452 8.117 5.452 22.329V11.73h-78.259V0H0" style="fill:#004f97;fill-opacity:1;fill-rule:nonzero;stroke:none" transform="translate(552.857 375.364)"/><path d="M601.758 319.535h100.936v11.73H601.758Z" style="fill:#004f97;fill-opacity:1;fill-rule:nonzero;stroke:none"/><path d="M0 0v23.235h-13.937V-5.529c0-3.382 2.886-6.2 6.313-6.2H64.45V0H0" style="fill:#004f97;fill-opacity:1;fill-rule:nonzero;stroke:none" transform="translate(627.58 288.736)"/><path d="M0 0c-11.089 0-19.062 6.431-19.062 15.288S-11.089 30.635 0 30.635c11.052 0 19.059-6.49 19.059-15.347S11.052 0 0 0m0 42.298c-18.268 0-33.125-12.115-33.125-27.01C-33.125.683-17.951-11.667 0-11.667c17.926 0 33.079 12.35 33.079 26.955 0 14.895-14.845 27.01-33.079 27.01" style="fill:#004f97;fill-opacity:1;fill-rule:nonzero;stroke:none" transform="translate(652.239 349.533)"/><path d="M0 0v27.299h-13.91V-5.529c0-3.382 2.9-6.2 6.308-6.2h70.107V0H0" style="fill:#004f97;fill-opacity:1;fill-rule:nonzero;stroke:none" transform="translate(383.461 288.736)"/><path d="M0 0v25.944h-13.977V-50.47h10.194S0-38.74 0-25.49v13.758h14.446V0H0" style="fill:#004f97;fill-opacity:1;fill-rule:nonzero;stroke:none" transform="translate(444.99 362.508)"/><path d="M0 0v10.376h-14.926V0h-26.229v-11.786h21.443A3179 3179 0 0 1-7.487-8.174c.104-.056 12.211-3.612 12.211-3.612h21.447V0H0" style="fill:#004f97;fill-opacity:1;fill-rule:nonzero;stroke:none" transform="translate(392.164 380.894)"/><path d="M0 0c-8.047 0-14.849 7.556-14.849 16.469 0 8.967 6.802 16.522 14.849 16.522 8.104 0 14.901-7.555 14.901-16.522C14.901 7.556 8.104 0 0 0m0 40.316c-16.452 0-27.907-9.804-27.907-23.97 0-15.113 12.502-27.408 27.907-27.408 15.413 0 27.947 12.295 27.947 27.408 0 14.166-11.506 23.97-27.947 23.97" style="fill:#004f97;fill-opacity:1;fill-rule:nonzero;stroke:none" transform="translate(384.677 336.512)"/><path d="M0 0v-22.332h-8.474V0h-13.187v-62.26h13.187v28.648H0v-28.199h9.474s3.71 10.146 3.71 24.985V0H0" style="fill:#004f97;fill-opacity:1;fill-rule:nonzero;stroke:none" transform="translate(804.612 388.452)"/><path d="M0 0v10.035h-14.924V0h-21.282v-11.732h16.456c.055 0 11.677 3.383 12.271 3.612.101-.067 12.218-3.612 12.218-3.612h16.58V0H0" style="fill:#004f97;fill-opacity:1;fill-rule:nonzero;stroke:none" transform="translate(755.435 381.236)"/><path d="M0 0c-6.309 0-11.663 6.541-11.663 14.274 0 7.778 5.354 14.322 11.663 14.322 6.334 0 11.676-6.544 11.676-14.322C11.676 6.541 6.334 0 0 0m0 36.208c-14.54 0-24.688-9.021-24.688-22.053C-24.688.121-13.629-11.28 0-11.28c13.642 0 24.701 11.401 24.701 25.435 0 13.032-10.156 22.053-24.701 22.053" style="fill:#004f97;fill-opacity:1;fill-rule:nonzero;stroke:none" transform="translate(747.957 341.018)"/><path d="M0 0c-10.352 0-18.205 6.779-18.205 15.62 0 8.979 7.853 15.798 18.205 15.798 10.585 0 18.209-6.654 18.209-15.798C18.209 6.601 10.585 0 0 0m0 42.531c-17.326 0-31.446-12.071-31.446-26.911 0-14.487 14.407-26.787 31.446-26.787 17.056 0 31.484 12.3 31.484 26.787 0 14.84-14.12 26.911-31.484 26.911" style="fill:#004f97;fill-opacity:1;fill-rule:nonzero;stroke:none" transform="translate(783.171 286.929)"/></g></svg>